<svg xmlns="http://www.w3.org/2000/svg" viewBox="0 0 500 500"><g id="freepik--Clipboard--inject-2"><rect x="129.35" y="72.85" width="253.59" height="375.49" rx="6.08" style="fill:#263238;stroke:#263238;stroke-linecap:round;stroke-linejoin:round"></rect><rect x="142.24" y="81.32" width="227.82" height="352.55" style="fill:#fff;stroke:#263238;stroke-linecap:round;stroke-linejoin:round"></rect><line x1="287.96" y1="172.78" x2="305.65" y2="172.78" style="fill:none;stroke:#263238;stroke-miterlimit:10"></line><line x1="165.27" y1="172.78" x2="274.26" y2="172.78" style="fill:none;stroke:#263238;stroke-miterlimit:10"></line><line x1="261.71" y1="186.48" x2="305.65" y2="186.48" style="fill:none;stroke:#263238;stroke-miterlimit:10"></line><line x1="194.37" y1="186.48" x2="249.73" y2="186.48" style="fill:none;stroke:#263238;stroke-miterlimit:10"></line><line x1="165.27" y1="186.48" x2="184.1" y2="186.48" style="fill:none;stroke:#263238;stroke-miterlimit:10"></line><line x1="220.05" y1="200.17" x2="305.65" y2="200.17" style="fill:none;stroke:#263238;stroke-miterlimit:10"></line><line x1="165.27" y1="200.17" x2="201.22" y2="200.17" style="fill:none;stroke:#263238;stroke-miterlimit:10"></line><circle cx="341.17" cy="185.34" r="14.84" transform="translate(-33.61 83.91) rotate(-13.37)" style="fill:none;stroke:#263238;stroke-miterlimit:10"></circle><line x1="182.96" y1="233.84" x2="165.27" y2="233.84" style="fill:none;stroke:#263238;stroke-miterlimit:10"></line><line x1="305.65" y1="233.84" x2="196.66" y2="233.84" style="fill:none;stroke:#263238;stroke-miterlimit:10"></line><line x1="209.21" y1="247.54" x2="165.27" y2="247.54" style="fill:none;stroke:#263238;stroke-miterlimit:10"></line><line x1="276.55" y1="247.54" x2="221.19" y2="247.54" style="fill:none;stroke:#263238;stroke-miterlimit:10"></line><line x1="305.65" y1="247.54" x2="286.82" y2="247.54" style="fill:none;stroke:#263238;stroke-miterlimit:10"></line><line x1="250.87" y1="261.23" x2="165.27" y2="261.23" style="fill:none;stroke:#263238;stroke-miterlimit:10"></line><line x1="305.65" y1="261.23" x2="269.7" y2="261.23" style="fill:none;stroke:#263238;stroke-miterlimit:10"></line><circle cx="341.17" cy="246.39" r="14.84" transform="translate(-47.73 85.56) rotate(-13.37)" style="fill:none;stroke:#263238;stroke-miterlimit:10"></circle><line x1="287.96" y1="294.9" x2="305.65" y2="294.9" style="fill:none;stroke:#263238;stroke-miterlimit:10"></line><line x1="165.27" y1="294.9" x2="274.26" y2="294.9" style="fill:none;stroke:#263238;stroke-miterlimit:10"></line><line x1="261.71" y1="308.6" x2="305.65" y2="308.6" style="fill:none;stroke:#263238;stroke-miterlimit:10"></line><line x1="194.37" y1="308.6" x2="249.73" y2="308.6" style="fill:none;stroke:#263238;stroke-miterlimit:10"></line><line x1="165.27" y1="308.6" x2="184.1" y2="308.6" style="fill:none;stroke:#263238;stroke-miterlimit:10"></line><line x1="220.05" y1="322.29" x2="305.65" y2="322.29" style="fill:none;stroke:#263238;stroke-miterlimit:10"></line><line x1="165.27" y1="322.29" x2="201.22" y2="322.29" style="fill:none;stroke:#263238;stroke-miterlimit:10"></line><circle cx="341.17" cy="307.45" r="14.84" transform="translate(-117.48 331.29) rotate(-45)" style="fill:none;stroke:#263238;stroke-miterlimit:10"></circle><path d="M275.33,43.28a1.94,1.94,0,0,1-1.94-1.94V30.44a4.12,4.12,0,0,0-4.12-4.12H251.7a4.12,4.12,0,0,0-4.13,4.12v10.9a1.93,1.93,0,0,1-1.93,1.94h0a1.93,1.93,0,0,0-1.94,1.93V74.74h33.56V45.21A1.93,1.93,0,0,0,275.33,43.28Zm-14.85-1a5.41,5.41,0,1,1,5.42-5.41A5.41,5.41,0,0,1,260.48,42.26Z" style="fill:#263238;stroke:#263238;stroke-linecap:round;stroke-linejoin:round"></path><path d="M216.73,65.35h87.51A8.65,8.65,0,0,1,312.88,74v9.95a0,0,0,0,1,0,0H208.08a0,0,0,0,1,0,0V74A8.65,8.65,0,0,1,216.73,65.35Z" style="fill:#fff;stroke:#263238;stroke-linecap:round;stroke-linejoin:round"></path><path d="M210.68,68.57h99.61A9.85,9.85,0,0,0,303,65.35H218A9.83,9.83,0,0,0,210.68,68.57Z" style="fill:#263238;stroke:#263238;stroke-linecap:round;stroke-linejoin:round"></path><rect x="208.08" y="83.86" width="104.8" height="6.11" style="fill:#fff;stroke:#263238;stroke-linecap:round;stroke-linejoin:round"></rect><polyline points="335.51 243.94 339.54 251.1 354.78 236.32" style="fill:none;stroke:#F5C074;stroke-linecap:round;stroke-miterlimit:10;stroke-width:6px"></polyline><polyline points="335.51 182.23 339.54 189.4 354.78 174.61" style="fill:none;stroke:#F5C074;stroke-linecap:round;stroke-miterlimit:10;stroke-width:6px"></polyline><line x1="287.96" y1="112.42" x2="305.65" y2="112.42" style="fill:none;stroke:#263238;stroke-miterlimit:10"></line><line x1="165.27" y1="112.42" x2="274.26" y2="112.42" style="fill:none;stroke:#263238;stroke-miterlimit:10"></line><line x1="261.71" y1="126.11" x2="305.65" y2="126.11" style="fill:none;stroke:#263238;stroke-miterlimit:10"></line><line x1="194.37" y1="126.11" x2="249.73" y2="126.11" style="fill:none;stroke:#263238;stroke-miterlimit:10"></line><line x1="165.27" y1="126.11" x2="184.1" y2="126.11" style="fill:none;stroke:#263238;stroke-miterlimit:10"></line><line x1="220.05" y1="139.81" x2="305.65" y2="139.81" style="fill:none;stroke:#263238;stroke-miterlimit:10"></line><line x1="165.27" y1="139.81" x2="201.22" y2="139.81" style="fill:none;stroke:#263238;stroke-miterlimit:10"></line><circle cx="341.17" cy="124.97" r="14.84" transform="translate(11.56 277.84) rotate(-45)" style="fill:none;stroke:#263238;stroke-miterlimit:10"></circle><polyline points="335.51 121.87 339.54 129.04 354.78 114.25" style="fill:none;stroke:#F5C074;stroke-linecap:round;stroke-miterlimit:10;stroke-width:6px"></polyline><polyline points="333.38 302.16 337.41 309.33 352.64 294.54" style="fill:none;stroke:#F5C074;stroke-linecap:round;stroke-miterlimit:10;stroke-width:6px"></polyline></g><g id="freepik--character-2--inject-2"><path d="M285.76,237.59c-.57-3.43-2.86-5.72-3.44-7.82a26.39,26.39,0,0,0-1.9-4.58,60.6,60.6,0,0,0-4.48,12.5l-.5-1.19L266,243.94l-.56,16.55,15.38.72s-.63-2.74-.85-4.77a21.37,21.37,0,0,1,.35-6s4.35.1,4.73-1.43S286.33,241,285.76,237.59Z" style="fill:#fff;stroke:#263238;stroke-linecap:round;stroke-linejoin:round"></path><path d="M283.29,231.5a7.94,7.94,0,0,0,1.79.45c.56,0,1.56.11,1.23,1.46a2.87,2.87,0,0,1-1.12,1.79Z" style="fill:#fff;stroke:#263238;stroke-linecap:round;stroke-linejoin:round"></path><path d="M278.72,422.72s-2.1,35.74-2.1,36.31-2.65,9.44-2.27,10.76,3.4,1.7,5.48,1.89,6.41.75,8.11.75a63.62,63.62,0,0,0,8.88-.75c1.13-.38,2.64-1.51,1.32-2.46s-4.53-1.32-8.31-5.66a37.09,37.09,0,0,1-4.72-6.23l8-34.23Z" style="fill:#fff;stroke:#263238;stroke-linecap:round;stroke-linejoin:round"></path><path d="M225.67,416.12s-14.71,36.59-15.84,38.1-8.77,11.16-9,13,9.58,2.06,11.28.93,3.72-11,4.85-13,26.22-36.4,26.22-36.4Z" style="fill:#fff;stroke:#263238;stroke-linecap:round;stroke-linejoin:round"></path><path d="M250.44,309.72l-.28,6.14s-7.66,16.52-15.11,37c-8.12,22.33-18.68,61-18.68,61s7,6.42,26,9.49,30.8,4.37,41.12,4.06c12.49-.38,28.4-3.78,28.4-3.78s-8.93-54.72-16.19-79.57-9-27.32-9-27.32l-2.47-13.85Z" style="fill:#8f8f8f;stroke:#263238;stroke-linecap:round;stroke-linejoin:round"></path><line x1="262.29" y1="352" x2="260.21" y2="425.31" style="fill:none;stroke:#263238;stroke-linecap:round;stroke-linejoin:round"></line><line x1="262.44" y1="346.57" x2="262.36" y2="349.45" style="fill:none;stroke:#263238;stroke-linecap:round;stroke-linejoin:round"></line><path d="M278.29,317.29q1.75-.36,3.42-.87" style="fill:none;stroke:#263238;stroke-linecap:round;stroke-linejoin:round"></path><path d="M253.51,317.81A92.06,92.06,0,0,0,274,318" style="fill:none;stroke:#263238;stroke-linecap:round;stroke-linejoin:round"></path><path d="M320,237.5a49,49,0,0,1-1-6.15c-.14-2.46-2.46-5.74-2.19-7.11s1.64-1.23,2.33-.82a6.7,6.7,0,0,1,1.5,1.78s1.92-5.88,1.92-8.48,1.64-2.32,2.32-.55-.27,8.62-.27,8.62a34.37,34.37,0,0,1,3.82,1.23c1.24.55,3.56,1.64,3.15,5.06s-.82,5.33-1.64,5.33-1.51-1.09-1.51-1.09,0,3.69-1.23,4.78a7.19,7.19,0,0,1-3.69,1.23S323.84,238.6,320,237.5Z" style="fill:#fff;stroke:#263238;stroke-linecap:round;stroke-linejoin:round"></path><path d="M328.48,235.32s.83-3.15.83-3.56" style="fill:none;stroke:#263238;stroke-linecap:round;stroke-linejoin:round"></path><line x1="320.69" y1="225.2" x2="319.87" y2="229.03" style="fill:none;stroke:#263238;stroke-linecap:round;stroke-linejoin:round"></line><path d="M316.61,241.33l2.57-4.36s1-1.39,3.37-.59l.07,0a4.34,4.34,0,0,1,2.77,5.24l-.66,2.46S319.58,241.13,316.61,241.33Z" style="fill:#F5C074;stroke:#263238;stroke-linecap:round;stroke-linejoin:round"></path><path d="M209.1,328.72s.63,3.27.94,5.6,1.86,7,3,7.62,2.49,1.4.94,1.87-2.49.62-3.89-.47A13.8,13.8,0,0,1,207.7,341s-1.08,4.82-1.86,7.16a38.9,38.9,0,0,1-3.11,6.06,2.2,2.2,0,0,1-1,1.71c-.93.47-1.6-1.39-1.6-1.39s-1.25,2.92-2.06-.16a77.94,77.94,0,0,1-1.24-10.89c.15-1.56,6.44-16,6.44-16Z" style="fill:#fff;stroke:#263238;stroke-linecap:round;stroke-linejoin:round"></path><path d="M200.27,345.83a7.8,7.8,0,0,0-1,2.49c0,.62.81,6.23.81,6.23" style="fill:none;stroke:#263238;stroke-linecap:round;stroke-linejoin:round"></path><polyline points="202.73 354.23 201.93 348.79 203.35 345.21" style="fill:none;stroke:#263238;stroke-linecap:round;stroke-linejoin:round"></polyline><path d="M203.82,352.37s.06-2.94.26-4.28.54-1.1,1-2.72" style="fill:none;stroke:#263238;stroke-linecap:round;stroke-linejoin:round"></path><path d="M205.37,338.06a4.53,4.53,0,0,1-1.24,2.48,34.07,34.07,0,0,1-3.27,2.65" style="fill:none;stroke:#263238;stroke-linecap:round;stroke-linejoin:round"></path><path d="M247.06,262.53s-12.69,6.15-13.48,7.73-16.64,29.92-18.82,32.7-8.92,6.34-9.71,9.11-.2,10.31-.2,10.31l-1.59,5.15s.2,1.78,3,2.38l2.78.59,4.76-4.56s10.3-2.57,14.46-7.53,14.27-28.14,14.27-28.14l-1.59,15.66a108.78,108.78,0,0,0,22.59.59c12.29-1,25.76-3,25.76-3l-1.78-18.23s29.33-4.75,30.91-6.14,3-5.15,3.17-6.54,5.15-27.94,5.15-27.94a9.16,9.16,0,0,0-5.94-3.77c-4.16-.79-8.32,1.39-8.52,2.58s-8.72,18.43-8.72,18.43-.6-.4-2.77.59-6-.56-6-.56-7.66-2.21-12-1.81-8.52,1-8.52,1-7.73-3.57-13.47-2S247.06,262.53,247.06,262.53Z" style="fill:#F5C074;stroke:#263238;stroke-linecap:round;stroke-linejoin:round"></path><polyline points="274.4 287.1 287.48 285.32 278.76 289.88" style="fill:none;stroke:#263238;stroke-linecap:round;stroke-linejoin:round"></polyline><polyline points="242.7 281.36 242.5 290.27 239.53 286.51" style="fill:none;stroke:#263238;stroke-linecap:round;stroke-linejoin:round"></polyline><path d="M206.63,323.17s.6,2,5.35,2" style="fill:none;stroke:#263238;stroke-linecap:round;stroke-linejoin:round"></path><path d="M257.8,246.62c6.51,5,12,2,14.33-.36,2.85-2.86,2.83-6.6,4.69-10.17.24-1.3,4.55-5.86,4.88-6.94.77-2.48-.71-6.83-.71-6.83s4.2.58,2.29-3.62-3.63-5.73-7.64-6.11a7.31,7.31,0,0,0-6.29,2.86s-4.77-2.29-8-.57-7.95,0-11.78,11.63a17.86,17.86,0,0,0-1.17,4.11c-.17,3.37,1.76,5.77,3.67,8.55C255,243.44,253.71,243.46,257.8,246.62Z" style="fill:#263238;stroke:#263238;stroke-linecap:round;stroke-linejoin:round"></path><path d="M265.58,241.15a4.83,4.83,0,1,1-4.83-4.83A4.84,4.84,0,0,1,265.58,241.15Z" style="fill:#fff;stroke:#263238;stroke-linecap:round;stroke-linejoin:round"></path><path d="M251.93,250.07c0,3,0,5.95-2.68,8-3,2.23-14.5,10.79-8.18,19.53s7.22,6.32,6.67,9.3-12.83,11.15-10.6,18.4,11.34,11.34,10,14.13,2.79,16.55,18.59,9.3,14.71-19.74,8.37-33.84c-1.47-3.26-.78-7.42,5.17-14.12s1.47-19.55-4.8-26c-3.7-3.83-5.21-6.88-5-7.62s-5.76-9.48-10.78-6.88c-3.12,1.62-6,4.71-6.67,8.34A8.26,8.26,0,0,0,251.93,250.07Z" style="fill:#263238;stroke:#263238;stroke-linecap:round;stroke-linejoin:round"></path><path d="M276.82,236.09s-2-2.73-3.33.2a6,6,0,0,0,1.67,6.94c1.36,1.07,2.34-2.84,2.34-2.84" style="fill:#fff;stroke:#263238;stroke-linecap:round;stroke-linejoin:round"></path><path d="M296.82,471.68c1.13-.38,2.64-1.51,1.32-2.46s-4.53-1.32-8.31-5.66l-.2,3.38a96.15,96.15,0,0,1-14.55-1.76,16.46,16.46,0,0,0-.73,4.61c.38,1.32,3.4,1.7,5.48,1.89s6.41.75,8.11.75A63.62,63.62,0,0,0,296.82,471.68Z" style="fill:#F5C074;stroke:#263238;stroke-linecap:round;stroke-linejoin:round"></path><path d="M212.15,468.2c.71-.47,1.46-2.43,2.19-4.7a32.35,32.35,0,0,1-10.49-1.3c-1.6,2.26-2.9,4.3-3,5.07C200.69,469.15,210.45,469.33,212.15,468.2Z" style="fill:#F5C074;stroke:#263238;stroke-linecap:round;stroke-linejoin:round"></path></g></svg>
